<svg width="200" height="60" viewBox="0 0 200 60" fill="none" xmlns="http://www.w3.org/2000/svg">
    <!-- Wave shapes logo -->
    <path d="M10 30C10 18 18 12 28 12C38 12 44 18 52 18C60 18 66 12 76 12C86 12 94 18 94 30C94 42 86 48 76 48C66 48 60 42 52 42C44 42 38 48 28 48C18 48 10 42 10 30Z" fill="#3D3552"/>
    <path d="M16 30C16 21 22 16.5 28 16.5C34 16.5 39 21 45 21C51 21 56 16.5 62 16.5C68 16.5 74 21 74 30C74 39 68 43.5 62 43.5C56 43.5 51 39 45 39C39 39 34 43.5 28 43.5C22 43.5 16 39 16 30Z" fill="#EFEFEF"/>
    
    <!-- Text: ProvenSuccess -->
    <text x="100" y="38" font-family="Arial, sans-serif" font-weight="700" font-size="20" fill="#3D3552">ProvenSuccess</text>
</svg>
