<?xml version="1.0" encoding="UTF-8"?>
<svg version="1.1" xmlns="http://www.w3.org/2000/svg" width="300" height="90" viewBox="0 0 100 100" preserveAspectRatio="xMidYMid meet">
<path d="M0 0 C11.61044611 7.87971198 19.15935154 19.2066008 22.3125 32.875 C23.89717002 49.02312243 21.49670209 62.85642305 11.3125 75.875 C2.63554281 85.40912627 -9.20905927 92.57459012 -22.32421875 93.2109375 C-38.27522126 93.49821567 -51.00429952 90.68762883 -63.1640625 79.62109375 C-73.96142781 68.37233356 -78.11642811 55.7894671 -78.05102539 40.50610352 C-77.76224063 26.46859694 -72.13689804 14.79262043 -62 5.0625 C-44.23015437 -10.05270406 -19.90521865 -11.59766872 0 0 Z " fill="#34253E" transform="translate(77.6875,7.125)"/>
<path d="M0 0 C9.47846035 6.43278793 16.40865715 15.05140434 20.3125 25.875 C20.46484375 28.73046875 20.46484375 28.73046875 20.3125 30.875 C19.838125 30.17375 19.36375 29.4725 18.875 28.75 C13.96645054 23.24284695 8.2066472 19.33857605 0.796875 18.63671875 C-7.54562767 18.41027939 -12.89923374 20.08839495 -19.0625 25.75 C-22.79503318 29.6861259 -25.75606691 34.15441194 -28.84619141 38.59448242 C-33.7557293 45.55261118 -39.38837333 52.97995581 -47.6875 55.875 C-49.0075 55.875 -50.3275 55.875 -51.6875 55.875 C-51.6875 55.215 -51.6875 54.555 -51.6875 53.875 C-51.07003906 53.63007812 -50.45257813 53.38515625 -49.81640625 53.1328125 C-38.77601472 48.25958032 -32.79549238 39.52459795 -26.51171875 29.5390625 C-24.75722373 26.97682351 -23.02809616 24.91155995 -20.6875 22.875 C-20.0275 22.875 -19.3675 22.875 -18.6875 22.875 C-18.6875 22.215 -18.6875 21.555 -18.6875 20.875 C-31.36427283 20.38269814 -40.71029376 20.12360915 -50.6875 28.875 C-52.03309466 30.66912622 -53.32443113 32.50505365 -54.5625 34.375 C-58.36171014 39.7109693 -61.25250722 42.98330833 -67.90234375 44.3203125 C-69.82162363 44.58341238 -71.75502333 44.7393876 -73.6875 44.875 C-73.3575 45.535 -73.0275 46.195 -72.6875 46.875 C-74.3375 46.215 -75.9875 45.555 -77.6875 44.875 C-78.54557897 31.43176287 -75.00840373 20.51170227 -66.6875 9.875 C-49.25941193 -9.27475361 -22.1179314 -12.88689392 0 0 Z " fill="#34243D" transform="translate(77.6875,7.125)"/>
<path d="M0 0 C4.04017011 2.21899934 7.08821533 4.55490777 9.16015625 8.79296875 C9.46953125 9.87578125 9.46953125 9.87578125 9.78515625 10.98046875 C8.15755208 11.37109375 6.52994792 11.76171875 4.90234375 12.15234375 C-1.21367555 14.54458746 -4.84774517 18.57323421 -8.65234375 23.66796875 C-9.1304248 24.28865234 -9.60850586 24.90933594 -10.10107422 25.54882812 C-12.16455299 28.23323211 -14.18549849 30.93971471 -16.1640625 33.6875 C-21.15723635 40.51965163 -27.12290579 45.25450482 -35.21484375 47.98046875 C-44.81695943 49.30441794 -53.29472068 46.98264932 -61.30078125 41.5703125 C-62.96484375 40.23046875 -62.96484375 40.23046875 -65.21484375 37.98046875 C-65.21484375 37.65046875 -65.21484375 37.32046875 -65.21484375 36.98046875 C-64.56257813 36.8103125 -63.9103125 36.64015625 -63.23828125 36.46484375 C-51.05027712 33.08527918 -44.25995003 26.07818966 -37.21484375 15.98046875 C-28.03264024 2.85910337 -16.94405424 -7.41084918 0 0 Z " fill="#FAFAFA" transform="translate(87.21484375,27.01953125)"/>
<path d="M0 0 C1.22589844 -0.00257812 2.45179687 -0.00515625 3.71484375 -0.0078125 C6.39012431 0.09832465 8.53177428 0.32582346 11.0625 1.125 C11.0625 1.785 11.0625 2.445 11.0625 3.125 C10.2375 3.74375 9.4125 4.3625 8.5625 5 C5.37801426 7.52819828 3.43726203 10.39791658 1.25 13.8125 C-3.90619805 21.79279889 -9.75857933 30.64334043 -18.9375 34.125 C-27.28868367 35.75482778 -33.06958168 33.04176223 -40.28515625 28.94921875 C-42.9375 27.125 -42.9375 27.125 -44.9375 24.125 C-44.34582031 24.08761719 -43.75414062 24.05023438 -43.14453125 24.01171875 C-38.27178431 23.60631892 -35.03694801 22.98219103 -30.9375 20.125 C-30.2775 20.125 -29.6175 20.125 -28.9375 20.125 C-28.68097656 19.56683594 -28.42445312 19.00867188 -28.16015625 18.43359375 C-22.07984619 6.95288051 -13.10688725 -0.02750658 0 0 Z " fill="#F8F7F8" transform="translate(47.9375,26.875)"/>
<path d="M0 0 C0.66 0.33 1.32 0.66 2 1 C1.05125 1.86625 0.1025 2.7325 -0.875 3.625 C-4.3660283 7.08787485 -7.09569842 10.84581908 -9.875 14.875 C-20.98580616 30.85551378 -20.98580616 30.85551378 -30 34 C-31.32 34 -32.64 34 -34 34 C-34 33.34 -34 32.68 -34 32 C-33.07380859 31.63261719 -33.07380859 31.63261719 -32.12890625 31.2578125 C-21.08851472 26.38458032 -15.10799238 17.64959795 -8.82421875 7.6640625 C-6.27757962 3.9449878 -4.32647166 1.44215722 0 0 Z " fill="#2B2431" transform="translate(60,29)"/>
<path d="M0 0 C-2.56107214 5.71219521 -6.88734961 9.71583996 -12.1875 12.9375 C-15 14 -15 14 -19 14 C-19 13.34 -19 12.68 -19 12 C-18.35933594 11.72027344 -17.71867187 11.44054688 -17.05859375 11.15234375 C-11.50109195 8.57651207 -7.44897326 5.94848187 -3.375 1.35546875 C-2 0 -2 0 0 0 Z " fill="#1C1326" transform="translate(45,49)"/>
<path d="M0 0 C2.64 0 5.28 0 8 0 C8.33 0.99 8.66 1.98 9 3 C5.85375007 3.26218749 4.38162983 3.24754367 1.6875 1.5 C1.130625 1.005 0.57375 0.51 0 0 Z " fill="#2D2137" transform="translate(18,61)"/>
<path d="M0 0 C0.66 0.33 1.32 0.66 2 1 C0.25 3.0625 0.25 3.0625 -2 5 C-4.25 4.75 -4.25 4.75 -6 4 C-3.94766315 1.7522025 -2.99332739 0.9977758 0 0 Z " fill="#271D32" transform="translate(60,29)"/>
<path d="M0 0 C1.32 0.33 2.64 0.66 4 1 C2.68 2.65 1.36 4.3 0 6 C-0.66 5.67 -1.32 5.34 -2 5 C-1.34 3.35 -0.68 1.7 0 0 Z " fill="#342B3C" transform="translate(53,34)"/>
<path d="M0 0 C3 1 3 1 3 1 Z " fill="#311531" transform="translate(64,99)"/>
<path d="M0 0 C3 1 3 1 3 1 Z " fill="#311531" transform="translate(33,99)"/>
<path d="M0 0 C3 1 3 1 3 1 Z " fill="#151515" transform="translate(67,98)"/>
<path d="M0 0 C3 1 3 1 3 1 Z " fill="#151515" transform="translate(30,98)"/>
<path d="M0 0 C3 1 3 1 3 1 Z " fill="#151515" transform="translate(67,1)"/>
<path d="M0 0 C3 1 3 1 3 1 Z " fill="#151515" transform="translate(30,1)"/>
<path d="M0 0 C3 1 3 1 3 1 Z " fill="#311531" transform="translate(64,0)"/>
<path d="M0 0 C3 1 3 1 3 1 Z " fill="#311531" transform="translate(33,0)"/>
<path d="M0 0 C2 1 2 1 2 1 Z " fill="#202060" transform="translate(70,97)"/>
<path d="M0 0 C2 1 2 1 2 1 Z " fill="#202060" transform="translate(28,97)"/>
<path d="M0 0 C2 1 2 1 2 1 Z " fill="#202060" transform="translate(72,96)"/>
<path d="M0 0 C2 1 2 1 2 1 Z " fill="#202060" transform="translate(26,96)"/>
<path d="M0 0 C2 1 2 1 2 1 Z " fill="#191919" transform="translate(74,95)"/>
<path d="M0 0 C2 1 2 1 2 1 Z " fill="#191919" transform="translate(24,95)"/>
<path d="M0 0 C2 1 2 1 2 1 Z " fill="#400080" transform="translate(77,93)"/>
<path d="M0 0 C2 1 2 1 2 1 Z " fill="#400080" transform="translate(21,93)"/>
<path d="M0 0 C2 1 2 1 2 1 Z " fill="#202020" transform="translate(80,91)"/>
<path d="M0 0 C2 1 2 1 2 1 Z " fill="#202020" transform="translate(18,91)"/>
<path d="M0 0 C2 1 2 1 2 1 Z " fill="#202020" transform="translate(80,8)"/>
<path d="M0 0 C2 1 2 1 2 1 Z " fill="#202020" transform="translate(18,8)"/>
<path d="M0 0 C2 1 2 1 2 1 Z " fill="#400080" transform="translate(77,6)"/>
<path d="M0 0 C2 1 2 1 2 1 Z " fill="#400080" transform="translate(21,6)"/>
<path d="M0 0 C2 1 2 1 2 1 Z " fill="#191919" transform="translate(74,4)"/>
<path d="M0 0 C2 1 2 1 2 1 Z " fill="#191919" transform="translate(24,4)"/>
<path d="M0 0 C2 1 2 1 2 1 Z " fill="#202060" transform="translate(72,3)"/>
<path d="M0 0 C2 1 2 1 2 1 Z " fill="#202060" transform="translate(26,3)"/>
<path d="M0 0 C2 1 2 1 2 1 Z " fill="#202060" transform="translate(70,2)"/>
<path d="M0 0 C2 1 2 1 2 1 Z " fill="#202060" transform="translate(28,2)"/>
</svg>
