<svg width="180" height="40" viewBox="0 0 180 40" fill="none" xmlns="http://www.w3.org/2000/svg">
    <!-- Wave shapes logo for dark mode -->
    <path d="M8 20C8 12 14 8 20 8C26 8 30 12 35 12C40 12 44 8 50 8C56 8 62 12 62 20C62 28 56 32 50 32C44 32 40 28 35 28C30 28 26 32 20 32C14 32 8 28 8 20Z" fill="#EFEFEF"/>
    <path d="M12 20C12 14 16 11 20 11C24 11 27 14 31 14C35 14 38 11 42 11C46 11 50 14 50 20C50 26 46 29 42 29C38 29 35 26 31 26C27 26 24 29 20 29C16 29 12 26 12 20Z" fill="#3D3552"/>
    
    <!-- Text: ProvenSuccess -->
    <text x="70" y="27" font-family="Arial, sans-serif" font-weight="700" font-size="18" fill="#EFEFEF">ProvenSuccess</text>
</svg>
