<svg width="50" height="40" viewBox="0 0 50 40" fill="none" xmlns="http://www.w3.org/2000/svg">
    <!-- Wave shapes logo - mobile light version -->
    <path d="M5 20C5 12 11 8 17 8C23 8 27 12 32 12C37 12 41 8 47 8C53 8 59 12 59 20C59 28 53 32 47 32C41 32 37 28 32 28C27 28 23 32 17 32C11 32 5 28 5 20Z" fill="#3D3552"/>
    <path d="M9 20C9 14 13 11 17 11C21 11 24 14 28 14C32 14 35 11 39 11C43 11 47 14 47 20C47 26 43 29 39 29C35 29 32 26 28 26C24 26 21 29 17 29C13 29 9 26 9 20Z" fill="#EFEFEF"/>
</svg>
